<?xml version="1.0" encoding="utf-8"?>
<!-- Generator: Adobe Illustrator 18.1.0, SVG Export Plug-In . SVG Version: 6.00 Build 0)  -->
<!DOCTYPE svg PUBLIC "-//W3C//DTD SVG 1.1//EN" "http://www.w3.org/Graphics/SVG/1.1/DTD/svg11.dtd">
<svg version="1.1" id="Layer_1" xmlns="http://www.w3.org/2000/svg" xmlns:xlink="http://www.w3.org/1999/xlink" x="0px" y="0px"
	 viewBox="236 -236 512 512" enable-background="new 236 -236 512 512" xml:space="preserve">
<circle fill="#FFFFFF" cx="491.2" cy="19.2" r="252.7"/>
<path fill="#009D57" d="M710.7,20.7c0,120.8-97.9,218.7-218.7,218.7c-120.8,0-218.7-97.9-218.7-218.7h34.3
	c0,101.9,82.6,184.5,184.5,184.5c101.9,0,184.5-82.6,184.5-184.5H710.7L710.7,20.7z"/>
<path fill="#231F20" d="M306.9-43.7l-4-1l-2.5,10c1.6,0.2,2.9,1,3.5,2.4c0.4,1,0.5,2.5,0.2,4.1l-3,12.1c-0.3,1.1-1.5,3.1-2.6,3.6
	c-1.5,0.8-2.8,0.6-4.5,0.2l-8-2c-1.6-0.4-2.5-1.2-3.1-2.7c-0.5-1.5,0.2-3.6,0.4-4.5l2.7-10.9c0.4-1.6,0.9-3.5,2-3.9
	c1-0.3,2.4-0.5,3.6,0l2.5-10l-2.2-0.5c-3.7-0.9-6.6-0.9-9.8,1.8c-1.6,1.5-3.2,7-3.4,7.8l-4,16c-0.5,2-1.8,7.9-0.4,11.3
	c1.5,3.6,6,5.3,10.7,6.5l5.4,1.4c3.2,0.8,9.5,2.5,12.6-0.1c3.4-2.8,4.5-5.6,5.6-9.9l3.7-14.9c1-4.2,2.2-7,0.9-11.1
	C312-41.7,309.9-42.9,306.9-43.7z M288.5-64.9L320-49.5l4.9-10l-31.5-15.4L288.5-64.9z M324.4-112.4l-7.1-4.3L296-81.2l7.1,4.3
	l7.8-13l23,13.8l5.6-9.3l-23-13.8L324.4-112.4z M363.5-159.2l-10,8.7l1,18.8l-18.6-3.5l-10.1,8.8l30.1,4l8,9.3l7.9-6.9l-8.2-9.5
	L363.5-159.2z M448.8-180.7c-0.9-2.7-2.5-8.6-8.1-10.3c-4.1-1.3-7.2-0.4-11.3,1.1l-17.8,6.1c-3.8,1.3-6.7,2.2-8.7,5.5
	c-2.5,4.2-0.4,10.1,0.7,13.2l1.4,4c1.1,3.1,2.9,9.8,6.6,11.1c4.1,1.3,7.2,0.8,11.1-0.5l18.8-6.5c4.2-1.4,7.8-3.5,9.6-6.3
	c2.5-3.9,0.3-9.8-1-13.5L448.8-180.7z M439.8-166.3c-0.6,0.9-1.8,1.8-3.3,2.3l-13.7,4.7c-1,0.4-3.6,0.6-4.6,0.1
	c-1.4-0.9-1.8-2.2-2.4-3.8l-2.3-6.8c-0.7-1.9-1-3.6,0.2-5.2c0.9-1.3,3.1-1.8,3.9-2.1l12.8-4.4c1.5-0.5,2.8-0.9,4.1-0.4
	c1.4,0.5,2,1.5,2.5,2.9l3,8.6C440.5-168.8,440.6-167.5,439.8-166.3z M499.7-198.7l-36.2,1.9l1.8,35l10.6-0.6l-0.6-12.2l24.3-1.3
	l-0.4-8l-24.3,1.3l-0.3-6.6l25.6-1.3L499.7-198.7z M540.1-192.5l-8.5,34l10.8,2.7l8.5-34L540.1-192.5z M593.6-172.4l-28.3-13.8
	l-15.4,31.5l9.3,4.6l4.1-8.4l15.8,7.7c0.8,0.4,1.2,0.8,1.6,1.6c0.4,0.9,0.5,1.7,0.1,2.6l-2.7,5.6l9.5,4.6l2.9-6
	c0.8-1.6,1.1-2.8,0.8-4.4c-0.4-2.2-2.9-4.5-3.4-4.8c0.3,0.1,2.8,0.5,4.5,0.3c2.1-0.3,3.3-1.9,4.3-3.9l2.2-4.6
	c1.4-2.8,1.4-5.4-0.1-8.1C597.7-170.2,596-171.2,593.6-172.4z M588.8-161.7l-1.1,2.3c-0.4,0.9-1,1.3-1.9,1.6c-1.2,0.4-2.1,0-3.3-0.5
	l-15.5-7.6l4.1-8.3l16.1,7.8c1,0.5,1.8,0.9,2.1,2C589.5-163.4,589.2-162.6,588.8-161.7z M644.9-135.2l-27.6,10.3l6.6-29.1l-8.9-8
	l-8.8,39.3l10.1,9.1l37.2-13.7L644.9-135.2z M659.5-119.1l-27.6,21.6l6.9,8.8l27.6-21.6L659.5-119.1z M692.2-66.5l-23.1,11.3
	l14.1-29.7l-7.3-15l-31.5,15.4l4.8,9.9l22.8-11.1L658-56.4l7.1,14.7l31.5-15.4L692.2-66.5z M701.4-5.8l8-1.8l-8.5-36.7l-34.2,7.9
	l8.6,37.4l8-1.9l-6.2-27l5.7-1.3l5.8,25l6.7-1.5l-5.8-25.1l5.7-1.3L701.4-5.8z"/>
<polygon fill="#231F20" points="447.2,-115.6 538.2,-115.6 538.3,166.7 447,166.7 447.2,-115.6 "/>
<path fill="#FFFFFF" d="M457.3,210.4l-0.7-0.1l-0.3,3.4l5.8,0.5l-1.5,16.8l4.8,0.4l2.1-24.4l-4-0.3
	C463.4,208.5,462,210.8,457.3,210.4z M483.4,208.1c-4.8,0-8.4,2.8-8.4,8.8c0,4.1,2.7,7.7,7.4,7.7c1.7,0,3.6-0.4,4.7-2.1l0.1,0.1
	c0,5.1-2,6.8-4,6.8c-1.5,0-2.6-0.7-2.8-2.4v0h-4.8c0.4,3.9,3.4,6.3,7.6,6.3c4.4,0,8.9-3.1,8.9-12.6
	C492.1,217.2,491.9,208.1,483.4,208.1z M483.5,220.7c-1.8,0-3.6-0.8-3.6-4.5c0-3.5,2.2-4.1,3.5-4.1c2.5,0,3.7,1.7,3.7,4.5
	C487.1,219.5,485.2,220.7,483.5,220.7z M496.6,208.8l0.1,4.3l12.2-0.5c-2,2.3-7.8,10.3-8,20.2l5-0.2c0.2-10.6,5.9-18.1,8.2-20.7
	l-0.1-3.7L496.6,208.8z M528.5,205l-3.9,0.8c0.2,1.8-0.5,4.4-5.1,5.3l-0.7,0.1l0.6,3.3l5.7-1.1l3.2,16.6l4.7-0.9L528.5,205z"/>
<path fill="#00ACD5" d="M537.8-115.9V-33h-90.3v-82.8l-94.7,27.3V92.2l94.9,73.8V-17.7H538V166l94-75.8V-89.2L537.8-115.9z
	 M412.5-62.1c8.1,0,14.7,6.6,14.7,14.7c0,8.1-6.6,14.7-14.7,14.7c-8.1,0-14.7-6.6-14.7-14.7C397.8-55.5,404.4-62.1,412.5-62.1z
	 M380-45.3c7.1,0,12.8,5.7,12.8,12.8c0,7.1-5.7,12.8-12.8,12.8c-7.1,0-12.8-5.7-12.8-12.8C367.2-39.6,373-45.3,380-45.3z
	 M374.4,91.7c-12.4-0.2-13.9-7.1-13.7-10.9c0,0,5.2-77.5,6-84.8s8.5-7.8,14.9-8.9s14.6-10.6,22.7-11.4s14.3-0.6,18.3,0.7
	c7.2,2.4,16.3,24.4,15.4,35c-2.1,23.4-34.9,10.2-38.1,35c-2.1,16.5,1.1,39.7,4.6,45.3C400.1,91.7,374.4,91.7,374.4,91.7z M441,79.6
	c-1,9-2.8,12.1-8.8,12.1s-12.9,0-16.8,0s-7.2-6-7.4-10.1s0-25.4,0-33.3s7.1-11.3,13-12.5c5.8-1.2,8.5-4.2,13-5.7s7,9.2,7,11V79.6z
	 M602.1-80.1c3.8,5,0.7,15.4-9.7,17.8C587.5-70.3,596-77.7,602.1-80.1z M564.5-80.1c3.1,1.8,11.2,7.1,11.2,11.2
	c0,1.7-0.7,4.4-1.5,6.6c-5.2-1.8-9.8-6.7-9.7-11.7V-80.1z M576.3,73.4c0,1.7-2.5,6.4-4.3,8.9c-1.5,2.1-4.4,4.4-7.2,5.8
	c-1.2,0.6-2.7,0.9-4.1,1.6l-2.4-0.3c3.9-0.6,13.3-11.7,13.3-15.8V-35.8c-1.2-0.5-2.3-1.8-4-1.8c-6.1,0-4.8,6.6-13.9,6.6
	c-1.7,0-5.7-1.3-8.6-2.2c4.9-4.4,7.9-9.4,11.6-9c6.4,1.8,13.8,0.7,13.8,0.7s-0.2-10.3-6.7-14.5c-1.7-1-10.5,0.5-12.7-11.2
	c0,0,8.6-1.2,11.7,0.7c2.1,1.3,3.3,4.9,4.3,6.6c1.7,2.8,9.2,11.3,9.2,18.2S576.3,73.4,576.3,73.4z M552.9-14.5
	c0.5-2.1,3.4-14.5,8.9-14.5c0,0,4.8,0,6.1,0C568.4-18.1,558.3-16.4,552.9-14.5z M544.1-52.7c3.6-0.2,8.6-2.2,10.3-2.2
	c3.1,0,8.3,4.2,9.6,7.8c-2.2,0.8-4.9,2.2-6.6,2.2C551.6-44.9,548.4-47.8,544.1-52.7z M586.2-65.7V89.7H581v-156
	c-1.4-1-3.4-4.8-3.4-6.5c0-1.7,3.4-7.1,5.6-11.3c4.3,6,5.7,7.6,5.7,11.9C588.9-69.5,586.3-68,586.2-65.7z M613.3-31
	c-9.1,0-7.8-6.6-13.9-6.6c-1.7,0-2.8,1.3-4,1.8V73.6c0,4.1,9.4,15.3,13.3,15.8l-2.4,0.3c-1.4-0.7-2.9-1-4.1-1.6
	c-2.8-1.4-5.7-3.8-7.2-5.8c-1.7-2.5-4.3-7.2-4.3-8.9c0,0,0-103.3,0-110.6c0-11.3,6.5-20,9.2-22.8c0.7-4.6,8.9-10.9,16-7.3
	c-0.9,6.4-6.9,11.7-12.7,11.2c-5,2-8,12.4-6.7,14.5s12.2-0.7,13.8-0.7c4.7,0,6.7,4.6,11.6,9C619.1-32.3,615-31,613.3-31z
	 M615.4-14.5c-5.4-1.9-16.3-4.9-15.1-14.5c3.3-0.7,6.1,0,6.1,0C612-29,614.9-16.6,615.4-14.5z M621.4-52.7
	c-4.3,4.8-7.4,7.8-13.2,7.8c-1.7,0-4.4-1.3-6.6-2.2c1.3-3.6,6.5-7.8,9.6-7.8C612.8-54.9,617.8-52.9,621.4-52.7z M417.2,23.3
	c6.7,0,12.1-5.4,12.1-12.1c0-6.7-5.4-12.1-12.1-12.1s-12.1,5.4-12.1,12.1C405.1,17.9,410.5,23.3,417.2,23.3z M417.2,2.7
	c4.7,0,8.5,3.8,8.5,8.5c0,4.7-3.8,8.5-8.5,8.5s-8.5-3.8-8.5-8.5C408.7,6.5,412.5,2.7,417.2,2.7z"/>
</svg>
